<svg width="23" height="23" viewBox="0 0 23 23" fill="none" xmlns="http://www.w3.org/2000/svg">
<path d="M10.5 2.8125V0.5625C10.5 0.413316 10.5593 0.270242 10.6648 0.164752C10.7702 0.0592632 10.9133 0 11.0625 0C11.2117 0 11.3548 0.0592632 11.4602 0.164752C11.5657 0.270242 11.625 0.413316 11.625 0.5625V2.8125C11.625 2.96168 11.5657 3.10476 11.4602 3.21025C11.3548 3.31574 11.2117 3.375 11.0625 3.375C10.9133 3.375 10.7702 3.31574 10.6648 3.21025C10.5593 3.10476 10.5 2.96168 10.5 2.8125ZM16.875 11.0625C16.875 12.2121 16.5341 13.3359 15.8954 14.2918C15.2567 15.2476 14.3489 15.9926 13.2868 16.4326C12.2248 16.8725 11.0561 16.9876 9.92854 16.7633C8.80102 16.539 7.76533 15.9855 6.95244 15.1726C6.13955 14.3597 5.58596 13.324 5.36169 12.1965C5.13741 11.0689 5.25252 9.90025 5.69245 8.83815C6.13238 7.77606 6.87739 6.86827 7.83325 6.22958C8.78911 5.5909 9.9129 5.25 11.0625 5.25C12.6035 5.25174 14.081 5.86468 15.1706 6.95436C16.2603 8.04404 16.8733 9.52146 16.875 11.0625ZM15.75 11.0625C15.75 10.1354 15.4751 9.22912 14.96 8.45826C14.4449 7.68741 13.7129 7.0866 12.8563 6.73181C11.9998 6.37703 11.0573 6.2842 10.148 6.46507C9.23873 6.64594 8.4035 7.09238 7.74794 7.74794C7.09238 8.4035 6.64594 9.23873 6.46507 10.148C6.2842 11.0573 6.37703 11.9998 6.73181 12.8563C7.0866 13.7129 7.68741 14.4449 8.45826 14.96C9.22912 15.4751 10.1354 15.75 11.0625 15.75C12.3052 15.7485 13.4967 15.2542 14.3754 14.3754C15.2542 13.4967 15.7485 12.3052 15.75 11.0625ZM4.665 5.46C4.7165 5.51526 4.7786 5.55959 4.8476 5.59034C4.9166 5.62108 4.99108 5.63761 5.06661 5.63894C5.14214 5.64028 5.21716 5.62638 5.2872 5.59809C5.35724 5.5698 5.42086 5.52769 5.47428 5.47428C5.52769 5.42086 5.5698 5.35724 5.59809 5.2872C5.62638 5.21716 5.64028 5.14214 5.63894 5.06661C5.63761 4.99108 5.62108 4.9166 5.59034 4.8476C5.55959 4.7786 5.51526 4.7165 5.46 4.665L3.96 3.165C3.85337 3.06564 3.71233 3.01155 3.56661 3.01412C3.42088 3.01669 3.28184 3.07572 3.17878 3.17878C3.07572 3.28184 3.01669 3.42088 3.01412 3.56661C3.01155 3.71233 3.06564 3.85337 3.165 3.96L4.665 5.46ZM4.665 16.665L3.165 18.165C3.10973 18.2165 3.06541 18.2786 3.03466 18.3476C3.00392 18.4166 2.98739 18.4911 2.98606 18.5666C2.98472 18.6421 2.99862 18.7172 3.02691 18.7872C3.0552 18.8572 3.09731 18.9209 3.15072 18.9743C3.20414 19.0277 3.26776 19.0698 3.3378 19.0981C3.40784 19.1264 3.48286 19.1403 3.55839 19.1389C3.63392 19.1376 3.7084 19.1211 3.7774 19.0903C3.8464 19.0596 3.9085 19.0153 3.96 18.96L5.46 17.46C5.51526 17.4085 5.55959 17.3464 5.59034 17.2774C5.62108 17.2084 5.63761 17.1339 5.63894 17.0584C5.64028 16.9829 5.62638 16.9078 5.59809 16.8378C5.5698 16.7678 5.52769 16.7041 5.47428 16.6507C5.42086 16.5973 5.35724 16.5552 5.2872 16.5269C5.21716 16.4986 5.14214 16.4847 5.06661 16.4861C4.99108 16.4874 4.9166 16.5039 4.8476 16.5347C4.7786 16.5654 4.7165 16.6097 4.665 16.665ZM17.0625 5.625C17.2116 5.62487 17.3546 5.56552 17.46 5.46L18.96 3.96C19.0594 3.85337 19.1135 3.71233 19.1109 3.56661C19.1083 3.42088 19.0493 3.28184 18.9462 3.17878C18.8432 3.07572 18.7041 3.01669 18.5584 3.01412C18.4127 3.01155 18.2716 3.06564 18.165 3.165L16.665 4.665C16.5864 4.74366 16.5329 4.84385 16.5113 4.9529C16.4896 5.06195 16.5008 5.17497 16.5433 5.27769C16.5858 5.38041 16.6578 5.46823 16.7503 5.53004C16.8427 5.59186 16.9513 5.6249 17.0625 5.625ZM17.46 16.665C17.3534 16.5656 17.2123 16.5115 17.0666 16.5141C16.9209 16.5167 16.7818 16.5757 16.6788 16.6788C16.5757 16.7818 16.5167 16.9209 16.5141 17.0666C16.5115 17.2123 16.5656 17.3534 16.665 17.46L18.165 18.96C18.2716 19.0594 18.4127 19.1135 18.5584 19.1109C18.7041 19.1083 18.8432 19.0493 18.9462 18.9462C19.0493 18.8432 19.1083 18.7041 19.1109 18.5584C19.1135 18.4127 19.0594 18.2716 18.96 18.165L17.46 16.665ZM3.375 11.0625C3.375 10.9133 3.31574 10.7702 3.21025 10.6648C3.10476 10.5593 2.96168 10.5 2.8125 10.5H0.5625C0.413316 10.5 0.270242 10.5593 0.164752 10.6648C0.0592632 10.7702 0 10.9133 0 11.0625C0 11.2117 0.0592632 11.3548 0.164752 11.4602C0.270242 11.5657 0.413316 11.625 0.5625 11.625H2.8125C2.96168 11.625 3.10476 11.5657 3.21025 11.4602C3.31574 11.3548 3.375 11.2117 3.375 11.0625ZM11.0625 18.75C10.9133 18.75 10.7702 18.8093 10.6648 18.9148C10.5593 19.0202 10.5 19.1633 10.5 19.3125V21.5625C10.5 21.7117 10.5593 21.8548 10.6648 21.9602C10.7702 22.0657 10.9133 22.125 11.0625 22.125C11.2117 22.125 11.3548 22.0657 11.4602 21.9602C11.5657 21.8548 11.625 21.7117 11.625 21.5625V19.3125C11.625 19.1633 11.5657 19.0202 11.4602 18.9148C11.3548 18.8093 11.2117 18.75 11.0625 18.75ZM21.5625 10.5H19.3125C19.1633 10.5 19.0202 10.5593 18.9148 10.6648C18.8093 10.7702 18.75 10.9133 18.75 11.0625C18.75 11.2117 18.8093 11.3548 18.9148 11.4602C19.0202 11.5657 19.1633 11.625 19.3125 11.625H21.5625C21.7117 11.625 21.8548 11.5657 21.9602 11.4602C22.0657 11.3548 22.125 11.2117 22.125 11.0625C22.125 10.9133 22.0657 10.7702 21.9602 10.6648C21.8548 10.5593 21.7117 10.5 21.5625 10.5Z" fill="white"/>
</svg>
